With: Michael Shanks, Alexandra Davies and Indiana Evans

Een onderzoeksschip van de VS ligt in de Antarctische oceaan op 150 kilometer van de kust van Australië voor een onderzoek naar de ozonlaag. Plots wordt het schip getroffen door een golf van ijskoude lucht die alles en iedereen in een mum van tijd bevriest. Jack Tate, een briljante natuurkundige verliest vanaf het land het contact met het schip. Wanneer Jack achter de bizarre dood van zijn collega's komt gaat hij op onderzoek uit. Door de verschillende puzzelstukken samen te voegen kan hij maar een ding concluderen: Er volgt een nieuwe ijstijd! Maar wanneer Jack zijn ontdekking voorlegt aan de wetenschap wordt hij aangekeken op zijn slechte verleden en weigeren ze te luisteren naar zijn oplossing om de planeet te redden.

When a solar eclipse sends a colossal blast of super chilled air towards the earth, it then sets off a catastrophic chain of events that threatens to engulf the world in ice and begin a new Ice Age. 

------------------------ Dutch Friends ------------------------
---------------------------------------------------------------
- Bezoek ook eens mijn vrienden op:  http://www.Film-Test.nl --
----- voor mijn Nederlandse Sync. ondertitels ---- en meer ----
------- http://www.Film-Test.nl ---- voor Films en meer -------
---------------------------------------------------------------

General:

Complete name                    : Arctic Blast\Arctic Blast.avi
Format                           : AVI
Format/Info                      : Audio Video Interleave
File size                        : 1.39 GiB
Duration                         : 1h 27mn
Overall bit rate                 : 2 258 Kbps

Video:

Format                           : MPEG-4 Visual
Format profile                   : Simple@L3
Format settings, BVOP            : No
Format settings, QPel            : No
Format settings, GMC             : No warppoints
Format settings, Matrix          : Default (H.263)
Codec ID                         : XVID
Codec ID/Hint                    : XviD
Duration                         : 1h 27mn
Bit rate                         : 1 799 Kbps
Width                            : 704 pixels
Height                           : 396 pixels
Display aspect ratio             : 16:9
Frame rate                       : 25.000 fps
Color space                      : YUV
Chroma subsampling               : 4:2:0
Bit depth                        : 8 bits
Scan type                        : Progressive
Compression mode                 : Lossy
Bits/(Pixel*Frame)               : 0.258
Stream size                      : 1.10 GiB (80%)
Writing library                  : XviD 1.1.2 (UTC 2006-11-01)

Audio:

Format                           : AC-3
Format/Info                      : Audio Coding 3
Mode extension                   : CM (complete main)
Codec ID                         : 2000
Duration                         : 1h 27mn
Bit rate mode                    : Constant
Bit rate                         : 448 Kbps
Channel(s)                       : 6 channels
Channel positions                : Front: L C R, Side: L R, LFE
Sampling rate                    : 48.0 KHz
Bit depth                        : 16 bits
Compression mode                 : Lossy
Stream size                      : 281 MiB (20%)
Alignment                        : Aligned on interleaves
Interleave, duration             : 32 ms (0.80 video frame)
Interleave, preload duration     : 256 ms


